<svg width="16" height="16" viewBox="0 0 16 16" fill="none" xmlns="http://www.w3.org/2000/svg">
<g clip-path="url(#clip0_104_1551)">
<ellipse cx="8" cy="8.0001" rx="8" ry="7.99961" fill="#1877F2"/>
<path d="M8.00005 2.7998C5.14438 2.7998 2.80005 4.96923 2.80005 7.65642C2.80005 9.08807 3.48038 10.3601 4.53338 11.2461V13.1993L6.45652 12.2622C6.94532 12.4058 7.45665 12.513 8.00005 12.513C10.8557 12.513 13.2 10.3436 13.2 7.65642C13.2 4.96923 10.8557 2.7998 8.00005 2.7998ZM8.00005 3.64443C10.4089 3.64443 12.3334 5.44603 12.3334 7.65642C12.3334 9.86681 10.4089 11.6684 8.00005 11.6684C7.48222 11.6684 6.98778 11.5725 6.52412 11.4176L6.34818 11.3648L5.40005 11.8268V10.8766L5.23755 10.7444C4.27598 10.0058 3.66672 8.89887 3.66672 7.65642C3.66672 5.44603 5.59115 3.64443 8.00005 3.64443ZM7.51255 6.3236L4.89912 9.01585L7.24172 7.74891L8.48755 9.05555L11.0741 6.32317L8.78525 7.57745L7.51255 6.3236Z" fill="white"/>
</g>
<defs>
<clipPath id="clip0_104_1551">
<rect width="16" height="16" fill="white"/>
</clipPath>
</defs>
</svg>
