<svg width="96" height="94" viewBox="0 0 96 94" fill="none" xmlns="http://www.w3.org/2000/svg">
<g clip-path="url(#clip0_104_3882)">
<path d="M19.9512 58.4619C23.6157 60.861 27.5465 62.335 31.8304 62.5667V61.8591C27.7175 61.3762 23.7709 60.1827 19.9512 58.4619Z" fill="#FDB927"/>
<path d="M34.4362 32.936L31.9907 53.5374L38.8252 53.1695L39.703 42.6235L43.0262 52.9244L46.4856 52.6462L49.2336 43.5433L50.3623 52.3725L55.8173 51.9719L53.0584 34.7755L47.2272 34.4689L44.6564 43.9725L41.8349 33.8557L34.4362 32.936Z" fill="#808080"/>
<path d="M56.0682 34.9902L56.2065 51.9899L65.0787 51.3006L65.0657 47.7741H61.2097L61.1782 45.9654L64.6583 45.9347V41.9799L61.2097 41.9494L61.147 40.2632L65.0345 40.3858L64.9716 35.9406L56.0682 34.9902Z" fill="#808080"/>
<path d="M73.8568 41.847L76.9606 40.0076C76.2368 38.8755 75.7713 37.6829 73.8254 36.7581C72.669 36.1446 70.6233 35.9363 69.2169 36.7886C67.1767 37.8523 65.8873 40.1676 65.8937 42.307C65.7547 44.4543 65.84 46.627 66.9596 48.4383C68.82 51.4605 71.4858 51.5517 74.0606 50.6456C75.2697 50.1438 77.0101 48.4908 77.0545 46.1392L77.2427 42.8281L71.9131 42.7054L71.8816 45.8631L73.5432 45.8938C73.4487 46.6447 73.1923 47.1631 71.7248 47.2426C71.1584 47.1856 69.7572 46.9833 69.8126 45.1888L69.9379 42.1689C69.9696 41.5052 70.9082 40.4643 72.1011 40.4983C72.8042 40.5178 73.4423 40.8406 73.8568 41.847Z" fill="#808080"/>
<path d="M80.2756 37.1382L77.0427 50.4013L80.2079 50.1984L80.5553 48.5468H82.775L83.0201 49.9823L85.89 49.7698L83.6532 37.3268L80.2756 37.1382ZM81.8968 41.5262L82.5625 45.631L81.0861 45.6026L81.8968 41.5262Z" fill="#808080"/>
<path d="M35.5001 32.2432L33.0548 52.8445L39.8891 52.4766L40.7671 41.9306L44.0901 52.2313L47.5495 51.9533L50.2975 42.8505L51.4262 51.6796L56.8811 51.2788L54.1223 34.0824L48.2911 33.776L45.7203 43.2796L42.8988 33.1628L35.5001 32.2432Z" fill="white"/>
<path d="M57.1322 34.2974L57.2705 51.297L66.1428 50.6077L66.1299 47.0812H62.2736L62.2424 45.2725L65.7222 45.2418V41.287L62.2736 41.2563L62.211 39.5702L66.0984 39.6929L66.0358 35.2477L57.1322 34.2974Z" fill="white"/>
<path d="M74.9208 41.1542L78.0246 39.3148C77.3008 38.1827 76.8353 36.9898 74.8896 36.0653C73.733 35.4516 71.6873 35.2435 70.2809 36.0958C68.2407 37.1595 66.9513 39.4748 66.9579 41.6142C66.8189 43.7615 66.904 45.9342 68.0239 47.7455C69.8843 50.7677 72.5499 50.8589 75.1247 49.9528C76.334 49.451 78.0741 47.798 78.1187 45.4461L78.3067 42.1353L72.9771 42.0126L72.9459 45.1703L74.6075 45.201C74.5127 45.9516 74.2564 46.4702 72.7891 46.5498C72.2227 46.4928 70.8212 46.2905 70.8766 44.4958L71.0021 41.4761C71.0336 40.8124 71.9722 39.7715 73.1653 39.8052C73.8683 39.825 74.5066 40.1478 74.9208 41.1542Z" fill="white"/>
<path d="M81.3395 36.4448L78.1066 49.7082L81.2719 49.5052L81.6194 47.8537H83.8388L84.084 49.2891L86.9541 49.0765L84.717 36.6336L81.3395 36.4448ZM82.9606 40.8328L83.6266 44.9379L82.1501 44.9095L82.9606 40.8328Z" fill="white"/>
<path d="M36.0324 31.896L33.5869 52.4976L40.4214 52.1297L41.2992 41.5837L44.6224 51.8844L48.0818 51.6063L50.8298 42.5035L51.9585 51.3326L57.4135 50.9319L54.6546 33.7354L48.8234 33.429L46.2526 42.9327L43.4311 32.8158L36.0324 31.896Z" fill="#EE1D25"/>
<path d="M57.6643 33.9492L57.8026 50.9491L66.6747 50.2598L66.6618 46.7333H62.8057L62.7743 44.9244L66.2543 44.8939V40.9391L62.8057 40.9084L62.7431 39.2222L66.6305 39.345L66.5676 34.8996L57.6643 33.9492Z" fill="#EE1D25"/>
<path d="M75.4529 40.8081L78.5567 38.9686C77.8328 37.8366 77.3673 36.6437 75.4214 35.7189C74.2651 35.1055 72.2193 34.8973 70.813 35.7496C68.7727 36.8133 67.4834 39.1286 67.4897 41.268C67.3508 43.4153 67.4361 45.5878 68.5557 47.3993C70.4161 50.4216 73.0819 50.5127 75.6567 49.6067C76.8658 49.1048 78.6061 47.4518 78.6505 45.1L78.8388 41.789L73.5091 41.6664L73.4777 44.8241L75.1393 44.8549C75.0448 45.6055 74.7884 46.1241 73.3211 46.2036C72.7545 46.1467 71.3532 45.9443 71.4086 44.1496L71.534 41.1299C71.5656 40.4662 72.5043 39.4253 73.6973 39.4591C74.4003 39.4789 75.0384 39.8016 75.4529 40.8081Z" fill="#EE1D25"/>
<path d="M81.8716 36.0977L78.6387 49.361L81.8038 49.158L82.1512 47.5065H84.3709L84.6161 48.9419L87.4859 48.7293L85.2491 36.2864L81.8716 36.0977ZM83.4927 40.4857L84.1585 44.5907L82.682 44.5623L83.4927 40.4857Z" fill="#EE1D25"/>
<path d="M37.4944 40.6243C37.4944 45.5513 33.466 49.5454 28.4967 49.5454C23.5277 49.5454 19.4993 45.5513 19.4993 40.6243C19.4993 35.6972 23.5277 31.7031 28.4967 31.7031C33.466 31.7031 37.4944 35.6972 37.4944 40.6243Z" fill="#FDB927"/>
<path d="M37.4944 40.6243C37.4944 45.5513 33.466 49.5454 28.4967 49.5454C23.5277 49.5454 19.4993 45.5513 19.4993 40.6243C19.4993 35.6972 23.5277 31.7031 28.4967 31.7031C33.466 31.7031 37.4944 35.6972 37.4944 40.6243Z" fill="url(#paint0_radial_104_3882)"/>
<path d="M38.0265 40.2776C38.0265 45.2046 33.9981 49.1988 29.0288 49.1988C24.0595 49.1988 20.0311 45.2046 20.0311 40.2776C20.0311 35.3505 24.0595 31.3564 29.0288 31.3564C33.9981 31.3564 38.0265 35.3505 38.0265 40.2776Z" fill="url(#paint1_radial_104_3882)"/>
<path d="M27.4876 40.8149L25.191 39.6884L22.8339 41.5721L23.7011 38.9455L20.3369 37.1966L24.0311 37.3093L24.7954 34.9263L25.7611 37.2865L28.4016 37.2796L26.5234 38.6899L27.4876 40.8149Z" fill="#214489"/>
<path d="M31.6797 36.4902L29.695 35.7643L28.2907 37.316L28.3615 35.0291L26.2188 33.6391L28.471 33.4759L28.6856 31.8037L29.8549 33.4666L31.6799 33.4303L30.6042 34.7047L31.6797 36.4902Z" fill="#214489"/>
<path d="M35.5498 37.2334L34.2567 37.0302L33.824 38.4513L33.1362 36.8148L31.6991 36.4955L32.9951 35.718L32.8218 34.0688L33.8717 35.2248L34.8964 34.5305L34.5547 36.0169L35.5498 37.2334Z" fill="#214489"/>
<path d="M35.4898 42.6713L34.5973 41.088L33.24 41.2624L34.2059 40.1228L33.7444 38.5252L34.7893 39.2737L35.6851 38.2339L35.6582 39.8129L36.8687 40.5302L35.5465 40.7551L35.4898 42.6713Z" fill="#214489"/>
<path d="M28.9348 46.7849L27.26 45.5421L24.4484 47.5808L25.7217 44.8721L23.1528 43.02L26.615 43.0957L27.4691 40.8208L28.2806 43.0165L30.4618 43.075L28.5819 44.3946L28.9348 46.7849Z" fill="#214489"/>
<path d="M35.2802 43.7267L33.4785 43.4248L33.227 41.3447L32.2687 43.2603L30.4473 43.0694L31.6568 44.5549L30.7826 46.5169L32.4884 45.5197L33.6955 46.8059L33.6142 44.8211L35.2802 43.7267Z" fill="#214489"/>
<path d="M25.8243 50.9353C31.4992 53.6737 37.0547 50.7529 38.667 45.6904C35.919 49.8983 29.2408 51.4079 25.8243 50.9353Z" fill="#FDB927"/>
<path d="M19.3422 36.7524C19.9257 34.9665 21.6843 32.6742 23.6065 32.0872C22.9677 31.7015 19.6005 29.0839 14.2089 29.9554C9.34403 31.0461 9.86053 36.4619 10.5685 38.652C10.6196 37.342 10.4764 35.558 11.3056 34.518C11.7154 34.066 14.2042 33.0346 19.0829 36.543C19.473 36.8208 18.2425 35.8964 19.3422 36.7524Z" fill="#FDB927"/>
<path d="M18.4767 37.9558C16.992 36.5961 15.3212 35.5507 13.2554 34.7594C10.7805 45.2057 20.2817 53.0941 26.3376 57.0663C21.2988 56.1671 8.28086 47.6687 8.42291 35.7743C8.393 34.9628 8.95699 29.0231 15.5835 28.8276C19.8474 28.9121 21.6464 29.8509 23.3899 30.6426" stroke="#FDB927" stroke-width="2.95"/>
<path d="M18.2585 38.1903L18.9205 38.7841L19.1046 38.0568L18.6586 37.6899L18.3746 37.8968L18.2312 38.0434L18.2585 38.1903Z" fill="#FDB927"/>
<path d="M23.2262 30.9176C23.7097 31.1772 24.1838 31.4386 24.6387 31.7042L25.6418 31.4907C24.9173 31.1073 24.027 30.5594 23.4907 30.3403L23.2807 30.5833L23.2262 30.9176Z" fill="#FDB927"/>
<path d="M24.4128 56.8377C25.5866 57.317 27.8605 57.8534 29.6937 57.7496C27.7805 57.3627 27.3069 57.3778 25.8528 56.3677L25.0135 56.4662L24.4128 56.8377Z" fill="#FDB927"/>
<path d="M12.0359 35.0874C11.1005 38.181 11.7931 41.7698 13.5097 45.817C11.5258 42.5069 8.65941 39.2458 12.0359 35.0874Z" fill="#EE1D25"/>
<path d="M18.9685 33.3794C16.9351 36.9785 16.4749 40.6346 18.3681 44.3761C17.3258 40.7105 17.684 37.045 18.9685 33.3794Z" fill="#EE1D25"/>
<path d="M86.5511 52.3462L86.021 53.7977L85.1729 53.4451C84.4786 53.2839 84.3987 54.0869 84.7699 54.1502L85.5969 54.3574C86.105 54.5174 86.2983 54.8973 86.4027 55.1455C86.6417 55.9672 86.4383 56.3085 86.339 56.7626C86.0102 57.6306 85.3891 58.0043 84.6215 58.1311C83.658 58.2711 83.1714 58.0843 82.5861 57.9652L83.2433 56.2235C83.3633 56.6746 83.9053 56.688 84.0491 56.7211C84.3699 56.8013 84.6257 56.6744 84.7488 56.5138C84.9267 56.2124 84.7248 56.0021 84.5368 55.9333L83.6039 55.7466C83.0421 55.6002 82.8847 54.9324 82.7875 54.5337C82.7252 54.0037 82.7899 53.5326 83.0685 53.0781C83.2877 52.6726 83.5447 52.4014 83.9317 52.114C84.2873 51.8828 84.9192 51.7908 85.406 51.8693C86.1923 52.0284 86.2347 52.1873 86.5511 52.3462Z" fill="#808080"/>
<path d="M32.2847 54.6533L30.8124 65.1718L35.5235 64.5666L35.6385 59.1327L38.0515 64.172L40.5031 63.8682L42.2162 58.5337L43.0768 63.5321L46.6712 63.0068L44.6663 54.2173L40.4985 54.2773L39.0293 59.6926L37.1517 54.4534L32.2847 54.6533Z" fill="#808080"/>
<path d="M47.6125 54.0667L51.338 53.8042L51.4642 62.3465L47.9657 62.8374L47.6125 54.0667Z" fill="#808080"/>
<path d="M52.827 53.6991L56.2231 53.5195L56.258 59.1308L58.8801 58.8732L58.87 61.3942L52.8712 62.2259L52.827 53.6991Z" fill="#808080"/>
<path d="M65.6122 53.0838L68.1949 52.8862L68.2237 60.1582L65.6122 60.5564V53.0838Z" fill="#808080"/>
<path d="M75.652 57.5184C74.7257 59.3738 72.5869 60.2706 70.8749 59.5215C69.163 58.7726 68.526 56.6614 69.4523 54.806C70.3787 52.9506 72.5177 52.054 74.2296 52.8029C75.9416 53.552 76.5784 55.6633 75.652 57.5184Z" fill="#808080"/>
<path d="M59.6615 53.416L62.543 53.2485L62.5727 58.4865L64.7977 58.2461L64.7891 60.5992L59.6991 61.3758L59.6615 53.416Z" fill="#808080"/>
<path d="M76.7419 52.3621L76.6898 59.0656L78.5443 58.8211L78.6067 55.3164L80.1278 58.5562L82.0865 58.4338L82.2323 52.0972L80.3778 52.1991L80.4508 55.7851L78.7318 52.25L76.7419 52.3621Z" fill="#808080"/>
<path d="M87.2568 51.6938L86.7267 53.1452L85.8784 52.7928C85.1843 52.6315 85.1044 53.4346 85.4756 53.4978L86.3026 53.7051C86.8107 53.8651 87.004 54.245 87.1084 54.4929C87.3472 55.3147 87.144 55.6561 87.0446 56.1103C86.7159 56.9781 86.0945 57.3517 85.3272 57.4788C84.3634 57.6186 83.8771 57.432 83.2917 57.3128L83.949 55.5712C84.069 56.0223 84.611 56.0354 84.7548 56.0688C85.0756 56.149 85.3313 56.0221 85.4545 55.8615C85.6324 55.5598 85.4305 55.3497 85.2423 55.2809L84.3093 55.0943C83.7478 54.9479 83.5903 54.28 83.4932 53.8814C83.4307 53.3512 83.4954 52.8803 83.7742 52.4255C83.9934 52.0202 84.2502 51.7491 84.6374 51.4614C84.993 51.2305 85.6247 51.1385 86.1117 51.2169C86.8978 51.3758 86.9402 51.535 87.2568 51.6938Z" fill="white"/>
<path d="M32.952 54.0383L31.4795 64.5568L36.1906 63.9515L36.3056 58.5177L38.7188 63.5568L41.1702 63.2532L42.8835 57.9185L43.7439 62.9169L47.3383 62.3918L45.3334 53.6021L41.1656 53.662L39.6964 59.0776L37.8188 53.8384L32.952 54.0383Z" fill="white"/>
<path d="M48.241 53.4522L51.9666 53.1895L52.0926 61.732L48.5943 62.2228L48.241 53.4522Z" fill="white"/>
<path d="M53.4558 52.9325L56.8516 52.7529L56.8868 58.3642L59.5086 58.1068L59.4985 60.6276L53.5 61.4595L53.4558 52.9325Z" fill="white"/>
<path d="M66.3595 52.3534L68.942 52.1558L68.971 59.4276L66.3595 59.8258V52.3534Z" fill="white"/>
<path d="M76.3994 56.788C75.4731 58.6432 73.3341 59.54 71.6221 58.7911C69.9101 58.042 69.2733 55.9308 70.1997 54.0754C71.126 52.2203 73.2648 51.3234 74.9768 52.0726C76.6888 52.8214 77.3258 54.9327 76.3994 56.788Z" fill="white"/>
<path d="M60.4058 52.6875L63.2875 52.52L63.3172 57.7582L65.5419 57.5178L65.5333 59.8709L60.4434 60.6475L60.4058 52.6875Z" fill="white"/>
<path d="M77.4864 51.7083L77.4343 58.4115L79.2886 58.1671L79.3512 54.6625L80.8721 57.9022L82.8308 57.78L82.9766 51.4434L81.1221 51.5453L81.1951 55.1313L79.4761 51.5962L77.4864 51.7083Z" fill="white"/>
<path d="M87.5784 51.4185L87.0482 52.87L86.2002 52.5174C85.5058 52.3563 85.426 53.1592 85.7973 53.2224L86.6243 53.4297C87.1324 53.5899 87.3255 53.9698 87.4299 54.2177C87.669 55.0395 87.4656 55.3807 87.3664 55.8351C87.0377 56.7028 86.4163 57.0765 85.6489 57.2034C84.6852 57.3434 84.1988 57.1565 83.6133 57.0376L84.2707 55.2958C84.3908 55.7469 84.9326 55.7602 85.0764 55.7936C85.3974 55.8735 85.6529 55.7467 85.776 55.5861C85.9539 55.2846 85.7523 55.0743 85.564 55.0055L84.6311 54.8189C84.0693 54.6727 83.9119 54.0046 83.8147 53.606C83.7525 53.076 83.8171 52.6051 84.0959 52.1504C84.3149 51.7448 84.572 51.4737 84.9589 51.1862C85.3145 50.9551 85.9464 50.8631 86.4334 50.9415C87.2195 51.1007 87.262 51.2596 87.5784 51.4185Z" fill="#33337A"/>
<path d="M33.3124 53.7263L31.8398 64.2446L36.551 63.6395L36.666 58.2055L39.0791 63.2448L41.5306 62.9412L43.2439 57.6065L44.1042 62.6049L47.6986 62.0796L45.6938 53.29L41.5259 53.35L40.0567 58.7654L38.1792 53.5263L33.3124 53.7263Z" fill="#33337A"/>
<path d="M48.6398 53.2147L52.3654 52.9521L52.4914 61.4947L48.9929 61.9853L48.6398 53.2147Z" fill="#33337A"/>
<path d="M53.8545 52.7708L57.2505 52.5913L57.2855 58.2025L59.9075 57.945L59.8974 60.466L53.8987 61.2979L53.8545 52.7708Z" fill="#33337A"/>
<path d="M66.6398 52.1561L69.2223 51.9585L69.2511 59.2305L66.6398 59.6287V52.1561Z" fill="#33337A"/>
<path d="M76.6795 56.5909C75.7532 58.446 73.6144 59.3428 71.9024 58.5937C70.1904 57.8448 69.5534 55.7336 70.4798 53.8782C71.4064 52.0231 73.5451 51.1263 75.2571 51.8752C76.9691 52.6243 77.6059 54.7355 76.6795 56.5909Z" fill="#33337A"/>
<path d="M60.6887 52.4507L63.5705 52.2832L63.6001 57.5212L65.8249 57.281L65.855 59.672L60.7263 60.4107L60.6887 52.4507Z" fill="#33337A"/>
<path d="M77.7692 51.4343L77.7173 58.1378L79.5715 57.8933L79.6342 54.3888L81.1551 57.6284L83.1138 57.5061L83.2596 51.1694L81.4051 51.2713L81.4781 54.8574L79.7591 51.3223L77.7692 51.4343Z" fill="#33337A"/>
<path d="M73.8601 52.6353L73.3082 54.3375L70.9307 54.5452L72.8412 55.6661L72.3317 57.7421L73.945 56.3305L75.4312 56.9947L74.8793 55.4586L76.1955 54.213L74.582 54.296L73.8601 52.6353Z" fill="white"/>
<path d="M94.9034 47.0002C94.9034 72.3333 73.924 92.9056 48 92.9056C22.076 92.9056 1.09656 72.3333 1.09656 47.0002C1.09656 21.667 22.076 1.09473 48 1.09473C73.924 1.09473 94.9034 21.667 94.9034 47.0002Z" stroke="#E0E0E0" stroke-width="2"/>
</g>
<defs>
<radialGradient id="paint0_radial_104_3882" cx="0" cy="0" r="1" gradientUnits="userSpaceOnUse" gradientTransform="translate(24.8738 37.7646) rotate(71.1343) scale(9.36824 10.2381)">
<stop stop-color="#FFF6D5"/>
<stop offset="1" stop-color="#FFF6D5" stop-opacity="0"/>
</radialGradient>
<radialGradient id="paint1_radial_104_3882" cx="0" cy="0" r="1" gradientUnits="userSpaceOnUse" gradientTransform="translate(25.549 37.7944) rotate(74.6764) scale(3.78793 4.6441)">
<stop stop-color="#FFF6D5"/>
<stop offset="1" stop-color="#FFF6D5" stop-opacity="0"/>
</radialGradient>
<clipPath id="clip0_104_3882">
<rect width="96" height="94" fill="white"/>
</clipPath>
</defs>
</svg>
