<svg width="16" height="16" viewBox="0 0 16 16" fill="none" xmlns="http://www.w3.org/2000/svg">
<path fill-rule="evenodd" clip-rule="evenodd" d="M15.5335 6.73837L11.3591 9.92349L12.8686 14.8136C12.8686 14.8136 13.741 16.8684 11.9642 15.5411C10.3364 14.3248 8.01007 12.4882 8.01007 12.4882C8.01007 12.4882 5.57067 14.3651 3.95791 15.6045C2.33535 16.8521 3.1646 14.7496 3.1646 14.7496L4.66627 9.91735L0.587977 6.80723C0.587977 6.80723 -0.890168 5.75802 0.84087 5.75802C2.83329 5.75802 5.94773 5.75939 5.94773 5.75939L7.57486 0.454724C7.57486 0.454724 7.70163 0 8.02183 0C8.36229 0 8.47599 0.48813 8.47599 0.48813L10.0842 5.76348C10.0842 5.76348 13.1672 5.75802 15.161 5.75802C16.7992 5.75802 15.5335 6.73837 15.5335 6.73837Z" fill="#F7D300"/>
</svg>
