<svg width="16" height="16" viewBox="0 0 16 16" fill="none" xmlns="http://www.w3.org/2000/svg">
<g clip-path="url(#clip0_104_1550)">
<circle cx="8" cy="8" r="8" fill="#1DA1F3"/>
<path d="M11.3981 6.50143C11.3981 6.57727 11.3981 6.6531 11.3981 6.7181C11.3981 8.9606 9.6864 11.5498 6.5664 11.5498C5.60223 11.5498 4.7139 11.2681 3.95557 10.7914C4.08557 10.8023 4.2264 10.8131 4.3564 10.8131C5.14723 10.8131 5.8839 10.5423 6.4689 10.0873C5.7214 10.0764 5.09307 9.5781 4.88723 8.90643C4.99557 8.9281 5.09307 8.93893 5.21223 8.93893C5.3639 8.93893 5.51557 8.91727 5.6564 8.87393C4.8764 8.72227 4.2914 8.03977 4.2914 7.21643C4.2914 7.2056 4.2914 7.2056 4.2914 7.19477C4.5189 7.32477 4.7789 7.4006 5.06057 7.41143C4.60557 7.1081 4.30223 6.5881 4.30223 5.99227C4.30223 5.6781 4.3889 5.3856 4.52973 5.13643C5.3639 6.1656 6.62057 6.83727 8.0289 6.9131C7.9964 6.79393 7.98557 6.6531 7.98557 6.5231C7.98557 5.5806 8.7439 4.82227 9.6864 4.82227C10.1739 4.82227 10.6181 5.0281 10.9214 5.3531C11.3114 5.27727 11.6689 5.13643 12.0047 4.94143C11.8747 5.34227 11.6039 5.66727 11.2572 5.88393C11.6039 5.8406 11.9289 5.75393 12.2322 5.6131C12.0156 5.95977 11.7339 6.2631 11.3981 6.50143Z" fill="#FAFBFC"/>
</g>
<defs>
<clipPath id="clip0_104_1550">
<rect width="16" height="16" fill="white"/>
</clipPath>
</defs>
</svg>
