<svg width="16" height="16" viewBox="0 0 16 16" fill="none" xmlns="http://www.w3.org/2000/svg">
<g clip-path="url(#clip0_104_1552)">
<circle cx="8" cy="8" r="8" fill="#25D366"/>
<path d="M10.1667 8.95315C10.0367 8.90982 9.4734 8.60649 9.3434 8.56315C9.2134 8.51982 9.17006 8.51982 9.0834 8.60649C8.96416 8.77388 8.83387 8.93313 8.6934 9.08315C8.60673 9.16982 8.5634 9.16982 8.4334 9.12649C8.07113 9.00454 7.74396 8.79634 7.48006 8.51982C7.2114 8.29075 6.99053 8.01097 6.83006 7.69649C6.7434 7.56649 6.83006 7.52315 6.8734 7.43649C6.94148 7.37315 6.99988 7.30014 7.04673 7.21982C7.09006 7.13315 7.1334 7.08982 7.17673 7.00315C7.22006 6.91649 7.17673 6.87315 7.17673 6.78649C7.17673 6.69982 6.91673 6.13649 6.78673 5.91982C6.65673 5.70315 6.6134 5.70315 6.52673 5.70315H6.31006C6.19652 5.70822 6.0887 5.75442 6.00673 5.83315C5.86427 5.95606 5.75133 6.10948 5.67631 6.28203C5.60129 6.45458 5.56612 6.64181 5.5734 6.82982C5.61311 7.27281 5.77848 7.69526 6.05006 8.04749C6.54231 8.82736 7.25171 9.44639 8.09106 9.82849C8.3944 9.95849 8.61106 10.0018 8.7844 10.0885C9.02237 10.1648 9.27578 10.1797 9.52106 10.1318C9.85176 10.0435 10.1423 9.84474 10.3444 9.56849C10.3992 9.38561 10.4283 9.19603 10.4311 9.00515C10.3425 9.00591 10.2546 8.99124 10.1711 8.96182L10.1667 8.95315ZM8.00006 11.8998C7.28019 11.9085 6.57258 11.7132 5.95906 11.3365L5.82906 11.2498L4.30806 11.6398L4.7024 10.1665L4.61573 10.0365C4.21961 9.39747 4.00952 8.66065 4.00906 7.90882C4.00821 7.11825 4.24191 6.34519 4.68059 5.6875C5.11928 5.02981 5.74322 4.51705 6.47345 4.21411C7.20367 3.91118 8.00736 3.83169 8.78278 3.98571C9.5582 4.13974 10.2705 4.52034 10.8295 5.07936C11.3885 5.63838 11.7691 6.35068 11.9232 7.1261C12.0772 7.90152 11.9977 8.70521 11.6948 9.43544C11.3918 10.1657 10.8791 10.7896 10.2214 11.2283C9.56369 11.667 8.79063 11.9007 8.00006 11.8998ZM11.3844 4.56782C10.4745 3.69076 9.26377 3.19468 8.00006 3.18115C6.73586 3.18115 5.52344 3.68335 4.62952 4.57728C3.7356 5.4712 3.2334 6.68362 3.2334 7.94782C3.23319 8.78744 3.45761 9.61183 3.8834 10.3355L3.1814 12.8185L5.7424 12.1685C6.44761 12.5525 7.24053 12.7467 8.0434 12.7318C8.66936 12.7318 9.2892 12.6085 9.86752 12.369C10.4458 12.1294 10.9713 11.7783 11.4139 11.3357C11.8566 10.8931 12.2077 10.3676 12.4472 9.78928C12.6868 9.21096 12.8101 8.59112 12.8101 7.96515C12.7794 6.69577 12.2665 5.48569 11.3757 4.58082" fill="#FAFBFC"/>
</g>
<defs>
<clipPath id="clip0_104_1552">
<rect width="16" height="16" fill="white"/>
</clipPath>
</defs>
</svg>
